<?xml version="1.0" encoding="utf-8"?>
<!-- Svg Vector Icons : http://www.onlinewebfonts.com/icon -->
<!DOCTYPE svg PUBLIC "-//W3C//DTD SVG 1.1//EN" "http://www.w3.org/Graphics/SVG/1.1/DTD/svg11.dtd">
<svg version="1.1" xmlns="http://www.w3.org/2000/svg" xmlns:xlink="http://www.w3.org/1999/xlink" x="0px" y="0px" viewBox="0 0 1000 1000" enable-background="new 0 0 1000 1000" xml:space="preserve">
<metadata> Svg Vector Icons : http://www.onlinewebfonts.com/icon </metadata>
<g><path d="M894.6,334.9c11.3-2.3,41.8,13.8,70.2-0.9c44.3-23,20.5-32.7,2.7-40.6c-17.7-7.9-64.1-23.7-68.2-65.8c-4.1-42-39-53.8-39-53.8s16.2-82.6,0.8-87.2c-15.4-4.7-69.7,51.3-84.4,64.2c-49.8,0-102.6,65.4-103.9,141.7c-1.3,76.9-41.2,133.3-81.7,150.2c-232.8,75.9-247,216.2-246.3,321.2c0.2,27.9,3.1,51.4,7.8,71.1c-25.1-23.9-60.9-94.3-37-222.9c30-161.5-57.6-321.6-305.4-279.1c91.3,43.8,118.9,161.2,101.4,227.8c-37.7,143.1-48.8,353,226.5,353c32.5,0,58.6,0,79.5,0c13.5,0,47.6,0,83.5,0c53.6,0,111.3,0,111.3,0c21.5-0.1,50,0,50-20.2c0-22.8-79.7-29.1-86-34.8c0,0,133-10.1,143-139.2c0,0,110.4,193.1,145.5,193.6c35.1,0.5,59.4,0,81.6,0c19.2,0,26.5-10.7,26.5-25.9c0-15.2-22.3-22.2-34.7-22.2c-11.5,0-37.3,3.2-52.5-17.7c-75.9-97.4-72.7-171.9-72.8-210.7c0-18.7,5.7-32.3,13.9-46.2c55-98.1,62.4-113.5,62.7-150c0.3-36.6-27-72.4-31.9-80C852.6,352.8,869.8,339.9,894.6,334.9z"/><g></g><g></g><g></g><g></g><g></g><g></g><g></g><g></g><g></g><g></g><g></g><g></g><g></g><g></g><g></g></g>
</svg>